<?xml version="1.0" encoding="UTF-8"?>
<svg id="Calque_2" data-name="Calque 2" xmlns="http://www.w3.org/2000/svg" xmlns:xlink="http://www.w3.org/1999/xlink" viewBox="0 0 300 300">
  <defs>
    <style>
      .cls-1 {
        stroke: url(#Dégradé_sans_nom_333-12);
      }

      .cls-1, .cls-2, .cls-3, .cls-4, .cls-5, .cls-6, .cls-7, .cls-8, .cls-9, .cls-10, .cls-11, .cls-12, .cls-13, .cls-14 {
        fill: none;
        stroke-miterlimit: 10;
        stroke-width: 5px;
      }

      .cls-2 {
        stroke: url(#Dégradé_sans_nom_333-15);
      }

      .cls-3 {
        stroke: url(#Dégradé_sans_nom_333-6);
      }

      .cls-15 {
        opacity: .9;
      }

      .cls-16 {
        fill: url(#Dégradé_sans_nom_333);
      }

      .cls-4 {
        stroke: url(#Dégradé_sans_nom_333-8);
      }

      .cls-5 {
        stroke: url(#Dégradé_sans_nom_333-7);
      }

      .cls-6 {
        stroke: url(#Dégradé_sans_nom_333-10);
      }

      .cls-7 {
        stroke: url(#Dégradé_sans_nom_333-5);
      }

      .cls-8 {
        stroke: url(#Dégradé_sans_nom_333-9);
      }

      .cls-9 {
        stroke: url(#Dégradé_sans_nom_333-13);
      }

      .cls-10 {
        stroke: url(#Dégradé_sans_nom_333-14);
      }

      .cls-11 {
        stroke: url(#Dégradé_sans_nom_333-11);
      }

      .cls-12 {
        stroke: url(#Dégradé_sans_nom_333-4);
      }

      .cls-13 {
        stroke: url(#Dégradé_sans_nom_333-2);
      }

      .cls-14 {
        stroke: url(#Dégradé_sans_nom_333-3);
      }

      .cls-17 {
        fill: url(#Dégradé_sans_nom_57);
      }
    </style>
    <linearGradient id="Dégradé_sans_nom_57" data-name="Dégradé sans nom 57" x1="248.99" y1="248.99" x2="51.01" y2="51.01" gradientUnits="userSpaceOnUse">
      <stop offset="0" stop-color="#fff"/>
      <stop offset="0" stop-color="#dd5d24"/>
      <stop offset=".4" stop-color="#dd0b24"/>
      <stop offset=".6" stop-color="#dd0b24"/>
      <stop offset="1" stop-color="#a90b24"/>
    </linearGradient>
    <linearGradient id="Dégradé_sans_nom_333" data-name="Dégradé sans nom 333" x1="43.93" y1="43.93" x2="256.07" y2="256.07" gradientUnits="userSpaceOnUse">
      <stop offset="0" stop-color="#fff"/>
      <stop offset="0" stop-color="#ffff65"/>
      <stop offset=".36" stop-color="#ffff0a"/>
      <stop offset=".4" stop-color="#ff0"/>
      <stop offset=".6" stop-color="#ff0"/>
      <stop offset="1" stop-color="#aa0"/>
    </linearGradient>
    <linearGradient id="Dégradé_sans_nom_333-2" data-name="Dégradé sans nom 333" x1="85.7" y1="49.87" x2="213.37" y2="177.53" xlink:href="#Dégradé_sans_nom_333"/>
    <linearGradient id="Dégradé_sans_nom_333-3" data-name="Dégradé sans nom 333" x1="101.53" y1="61.17" x2="197.45" y2="157.08" xlink:href="#Dégradé_sans_nom_333"/>
    <linearGradient id="Dégradé_sans_nom_333-4" data-name="Dégradé sans nom 333" x1="119.21" y1="78.04" x2="180.17" y2="139.01" xlink:href="#Dégradé_sans_nom_333"/>
    <linearGradient id="Dégradé_sans_nom_333-5" data-name="Dégradé sans nom 333" x1="122.14" y1="91.78" x2="124.64" y2="94.28" xlink:href="#Dégradé_sans_nom_333"/>
    <linearGradient id="Dégradé_sans_nom_333-6" data-name="Dégradé sans nom 333" x1="122.14" y1="115.68" x2="124.64" y2="118.18" xlink:href="#Dégradé_sans_nom_333"/>
    <linearGradient id="Dégradé_sans_nom_333-7" data-name="Dégradé sans nom 333" x1="122.1" y1="91.83" x2="124.68" y2="94.41" xlink:href="#Dégradé_sans_nom_333"/>
    <linearGradient id="Dégradé_sans_nom_333-8" data-name="Dégradé sans nom 333" x1="131.08" y1="91.78" x2="133.58" y2="94.28" xlink:href="#Dégradé_sans_nom_333"/>
    <linearGradient id="Dégradé_sans_nom_333-9" data-name="Dégradé sans nom 333" x1="116.81" y1="93.93" x2="139.04" y2="116.16" xlink:href="#Dégradé_sans_nom_333"/>
    <linearGradient id="Dégradé_sans_nom_333-10" data-name="Dégradé sans nom 333" x1="156.18" y1="94.28" x2="178.4" y2="116.5" xlink:href="#Dégradé_sans_nom_333"/>
    <linearGradient id="Dégradé_sans_nom_333-11" data-name="Dégradé sans nom 333" x1="125.19" y1="199.86" x2="174.22" y2="248.89" xlink:href="#Dégradé_sans_nom_333"/>
    <linearGradient id="Dégradé_sans_nom_333-12" data-name="Dégradé sans nom 333" x1="55.23" y1="185.91" x2="132.51" y2="263.2" xlink:href="#Dégradé_sans_nom_333"/>
    <linearGradient id="Dégradé_sans_nom_333-13" data-name="Dégradé sans nom 333" x1="53.44" y1="188.98" x2="127.68" y2="263.22" xlink:href="#Dégradé_sans_nom_333"/>
    <linearGradient id="Dégradé_sans_nom_333-14" data-name="Dégradé sans nom 333" x1="180.58" y1="199.66" x2="230.37" y2="249.45" xlink:href="#Dégradé_sans_nom_333"/>
    <linearGradient id="Dégradé_sans_nom_333-15" data-name="Dégradé sans nom 333" x1="195.87" y1="213.29" x2="221.56" y2="238.98" xlink:href="#Dégradé_sans_nom_333"/>
  </defs>
  <g id="Calque_1-2" data-name="Calque 1">
    <circle class="cls-17" cx="150" cy="150" r="140"/>
    <path class="cls-16" d="M150,0C67.16,0,0,67.16,0,150s67.16,150,150,150,150-67.16,150-150S232.84,0,150,0Zm0,290c-77.32,0-140-62.68-140-140S72.68,10,150,10s140,62.68,140,140-62.68,140-140,140Z"/>
    <g id="tracé" class="cls-15">
      <path class="cls-13" d="M51.35,109.28c0-36.64,45.66-71.34,97.81-71.34s99.08,33.46,99.08,76.43c0,38.23-41.52,74.87-97.81,74.87s-99.08-30.69-99.08-79.96Z"/>
      <path class="cls-14" d="M75.19,108.49c0-30.52,36.69-55.81,74.6-54.96,40.13,.9,74.24,25.46,73.59,56.39-.63,30.06-33.4,54.48-71.68,54.48-45.82,0-76.51-27.29-76.51-55.91Z"/>
      <path class="cls-12" d="M102.96,108.49c0-20.82,24.85-33.24,46.84-33.24s46.19,13.34,46.19,32.02c0,23.79-24.9,34.51-45.88,34.51-24.96,0-47.15-14.7-47.15-33.29Z"/>
      <line class="cls-7" x1="123.39" y1="93.03" x2="123.39" y2="93.03"/>
      <line class="cls-3" x1="123.39" y1="116.93" x2="123.39" y2="116.93"/>
      <line class="cls-5" x1="123.39" y1="93.2" x2="123.39" y2="93.04"/>
      <line class="cls-4" x1="132.33" y1="93.03" x2="132.33" y2="93.03"/>
      <path class="cls-8" d="M132.33,93.04v24.08c-.04,2.39-1.76,4.8-3.96,5.02-2.53,.24-5-2.46-4.98-5.21v-23.73c0-2.74,2.02-5.15,4.47-5.15,2.73,0,4.43,2.6,4.47,4.99Z"/>
      <path class="cls-6" d="M171.69,93.38v24.08c-.04,2.39-1.76,4.8-3.96,5.02-2.53,.24-5-2.46-4.98-5.21v-23.73c0-2.71,2.02-5.15,4.47-5.15,2.73,0,4.43,2.6,4.47,4.99Z"/>
      <path class="cls-11" d="M160.64,188.84l.15,69.43c0,4.06-22,4.67-22,0v-69.52"/>
      <path class="cls-1" d="M138.79,251.9c-50.96,7.27-91.74-8.18-95.83-49.81,51.72-32.92,85.81-7.43,95.83,49.81Z"/>
      <path class="cls-9" d="M42.96,202.1c23.12-1.31,70.83,27.61,95.83,49.81"/>
      <path class="cls-10" d="M160.79,251.9c6.44-45.35,35.2-86.44,95.2-49.85-6.69,56.22-67.75,53.67-95.2,49.85Z"/>
      <path class="cls-2" d="M160.79,251.9c24.69-22.51,70.14-49.85,95.2-49.85"/>
    </g>
  </g>
</svg>