<svg width="25" height="240" viewBox="0 0 25 240" fill="none" xmlns="http://www.w3.org/2000/svg">
<path d="M12.5 240L25 215.172H0L12.5 240Z" fill="#910000"/>
<path d="M12.5 231.724L25 206.897H0L12.5 231.724Z" fill="#500000"/>
<path d="M12.5 224.276L25 199.448H0L12.5 224.276Z" fill="#910000"/>
<path d="M12.5 216L25 191.172H0L12.5 216Z" fill="#500000"/>
<path d="M12.5 206.896L25 182.069H0L12.5 206.896Z" fill="#910000"/>
<path d="M12.5 198.621L25 173.793H0L12.5 198.621Z" fill="#500000"/>
<path d="M12.5 190.345L25 165.517H0L12.5 190.345Z" fill="#910000"/>
<path d="M12.5 182.069L25 157.241H0L12.5 182.069Z" fill="#500000"/>
<path d="M12.5 173.793L25 148.966H0L12.5 173.793Z" fill="#910000"/>
<path d="M12.5 165.517L25 140.69H0L12.5 165.517Z" fill="#500000"/>
<path d="M12.5 157.241L25 132.414H0L12.5 157.241Z" fill="#910000"/>
<path d="M12.5 148.966L25 124.138H0L12.5 148.966Z" fill="#500000"/>
<path d="M12.5 140.69L25 115.862H0L12.5 140.69Z" fill="#910000"/>
<path d="M12.5 132.414L25 107.586H0L12.5 132.414Z" fill="#500000"/>
<path d="M12.5 124.138L25 99.3104H0L12.5 124.138Z" fill="#910000"/>
<path d="M12.5 115.862L25 91.0345H0L12.5 115.862Z" fill="#500000"/>
<path d="M12.5 107.586L25 82.7586H0L12.5 107.586Z" fill="#910000"/>
<path d="M12.5 99.3103L25 74.4827H0L12.5 99.3103Z" fill="#500000"/>
<path d="M12.5 91.0344L25 66.2068H0L12.5 91.0344Z" fill="#910000"/>
<path d="M12.5 82.7587L25 57.9311H0L12.5 82.7587Z" fill="#500000"/>
<path d="M12.5 74.4828L25 49.6552H0L12.5 74.4828Z" fill="#910000"/>
<path d="M12.5 66.2069L25 41.3793H0L12.5 66.2069Z" fill="#500000"/>
<path d="M12.5 57.931L25 33.1034H0L12.5 57.931Z" fill="#910000"/>
<path d="M12.5 49.6552L25 24.8276H0L12.5 49.6552Z" fill="#500000"/>
<path d="M12.5 41.3793L25 16.5517H0L12.5 41.3793Z" fill="#910000"/>
<path d="M12.5 33.1034L25 8.27581H0L12.5 33.1034Z" fill="#500000"/>
<path d="M12.5 24.8276L25 5.14984e-05H0L12.5 24.8276Z" fill="#910000"/>
</svg>
